<mxfile host="app.diagrams.net" modified="2024-06-26T16:45:36.622Z" agent="Mozilla/5.0 (Windows NT 10.0; Win64; x64) AppleWebKit/537.36 (KHTML, like Gecko) Chrome/126.0.0.0 Safari/537.36" version="24.4.9" etag="lqg8rvbad_6YUp5bhg-O" type="github">
  <diagram name="Page-1" id="15GFWJaFphYvdEhH3db9">
    <mxGraphModel>
      <root>
        <mxCell id="0" />
        <mxCell id="1" parent="0" />
      </root>
    </mxGraphModel>
  </diagram>
</mxfile>
